<svg width="393.6" height="259.57942594718713" viewBox="0 0 378.69565217391306 249.75" class="looka-1j8o68f"><defs id="SvgjsDefs1952"></defs><g id="SvgjsG1953" featurekey="symbolGroupContainer" transform="matrix(2.4975,0,0,2.4975,0,0)" fill="#fe1817"><path xmlns="http://www.w3.org/2000/svg" d="M0 0h100v100H0z"></path></g><g id="SvgjsG1954" featurekey="Z2iLy3-0" transform="matrix(6.7946939411034055,0,0,6.7946939411034055,71.50283681863819,39.70156380958129)" fill="#ffffff"><path d="M1.1035 5.195 l7.832 0 q1.142578125 0 2.041015625 0.341796875 t1.5137 0.91309 t0.94238 1.3281 t0.32715 1.5771 q0 0.751953125 -0.1611328125 1.318359375 t-0.46875 1.0059 t-0.75684 0.77637 t-1.0254 0.61035 q0.498046875 0.25390625 0.87890625 0.7763671875 t0.57617 1.3525 l0.49805 1.9238 l1.2207 0 l0.019531 2.8809 l-4.2969 0 l-0.58594 -3.5156 q-0.087890625 -0.625 -0.2685546875 -1.079101563 t-0.4834 -0.74219 t-0.7373 -0.4248 t-1.0303 -0.13672 l-1.2598 0 l0 3.2227 l1.3574 0 l0 2.6758 l-6.1328 0 l0 -2.6758 l1.5332 0 l0 -9.4434 l-1.5332 0 l0 -2.6855 z M5.8789 7.881 l0 3.584 l1.9434 0 q0.556640625 0 1.000976563 -0.1025390625 t0.76172 -0.32227 t0.48828 -0.55176 t0.1709 -0.79102 q0 -0.859375 -0.615234375 -1.337890625 t-1.8066 -0.47852 l-1.9434 0 z"></path></g><g id="SvgjsG1955" featurekey="usJxlK-0" transform="matrix(2.6475763548501146,0,0,2.6475763548501146,267.0787040388455,74.24637061643682)" fill="#ffffff"><path d="M1.1035 5.195 l7.832 0 q1.142578125 0 2.041015625 0.341796875 t1.5137 0.91309 t0.94238 1.3281 t0.32715 1.5771 q0 0.751953125 -0.1611328125 1.318359375 t-0.46875 1.0059 t-0.75684 0.77637 t-1.0254 0.61035 q0.498046875 0.25390625 0.87890625 0.7763671875 t0.57617 1.3525 l0.49805 1.9238 l1.2207 0 l0.019531 2.8809 l-4.2969 0 l-0.58594 -3.5156 q-0.087890625 -0.625 -0.2685546875 -1.079101563 t-0.4834 -0.74219 t-0.7373 -0.4248 t-1.0303 -0.13672 l-1.2598 0 l0 3.2227 l1.3574 0 l0 2.6758 l-6.1328 0 l0 -2.6758 l1.5332 0 l0 -9.4434 l-1.5332 0 l0 -2.6855 z M5.8789 7.881 l0 3.584 l1.9434 0 q0.556640625 0 1.000976563 -0.1025390625 t0.76172 -0.32227 t0.48828 -0.55176 t0.1709 -0.79102 q0 -0.859375 -0.615234375 -1.337890625 t-1.8066 -0.47852 l-1.9434 0 z M16.04490625 5.195 l11.777 0 l0 5.0488 l-3.1836 0 l0 -2.0996 l-3.7988 0 l0 2.9199 l2.9395 0 l0 2.832 l-2.9395 0 l0 3.4277 l3.7988 0 l0 -2.627 l3.1836 0 l0 5.3027 l-11.777 0 l0 -2.6758 l1.5527 0 l0 -9.1797 l-1.5527 0 l0 -2.9492 z M29.21874875 5.195 l5.6836 0 q1.015625 0 1.948242188 0.263671875 t1.7383 0.74219 t1.4648 1.1475 t1.1279 1.4893 t0.72266 1.7676 t0.25391 1.9727 t-0.25391 1.9727 t-0.72266 1.7725 t-1.1279 1.5039 t-1.4648 1.1621 t-1.7383 0.74707 t-1.9482 0.26367 l-5.6836 0 l0 -2.6758 l1.1816 0 l0 -9.4434 l-1.1816 0 l0 -2.6855 z M33.64256875 7.881 l0 9.4434 l1.2402 0 q0.791015625 0 1.494140625 -0.37109375 t1.2207 -1.0107 t0.82031 -1.5039 t0.30273 -1.8604 q0 -0.986328125 -0.302734375 -1.845703125 t-0.82031 -1.4941 t-1.2207 -0.99609 t-1.4941 -0.36133 l-1.2402 0 z"></path></g><g id="SvgjsG1956" featurekey="usJxlK-1" transform="matrix(1.2736557465935958,0,0,1.2736557465935958,269.4900773783277,130.94314791360102)" fill="#ffffff"><path d="M8.2227 9.365 q-0.048828125 -0.341796875 -0.2392578125 -0.64453125 t-0.48828 -0.52246 t-0.67383 -0.34668 t-0.78613 -0.12695 q-0.37109375 0 -0.693359375 0.078125 t-0.56152 0.23926 t-0.38086 0.41504 t-0.1416 0.60547 q0 0.439453125 0.1904296875 0.6982421875 t0.48828 0.4248 t0.65918 0.26367 t0.70313 0.21484 l2.6855 0.89844 q0.556640625 0.1953125 1.044921875 0.537109375 t0.84473 0.83008 t0.56152 1.123 t0.20508 1.4258 q0 1.07421875 -0.3955078125 1.962890625 t-1.1084 1.5234 t-1.709 0.98633 t-2.207 0.35156 q-0.849609375 0 -1.606445313 -0.1904296875 t-1.3818 -0.55176 t-1.0938 -0.86426 t-0.73242 -1.1377 l-1.0059 0 l0 -2.9395 l3.5352 0 l0 0.60547 q0 0.439453125 0.1416015625 0.810546875 t0.4248 0.64453 t0.71289 0.4248 t1.0059 0.15137 q0.87890625 0 1.337890625 -0.4052734375 t0.45898 -1.1279 q0 -0.37109375 -0.1611328125 -0.6201171875 t-0.41504 -0.41992 t-0.56641 -0.28809 t-0.61523 -0.21484 l-2.2363 -0.72266 q-0.634765625 -0.1953125 -1.225585938 -0.546875 t-1.0449 -0.87891 t-0.72266 -1.2354 t-0.26855 -1.6162 q0 -1.0546875 0.390625 -1.879882813 t1.0938 -1.3916 t1.6699 -0.85938 t2.1191 -0.29297 q0.908203125 0 1.6796875 0.2099609375 t1.3818 0.56152 t1.0352 0.80566 t0.64941 0.94238 l0.97656 0 l0 2.9492 l-3.5352 0 l0 -0.85938 z M18.593703125 20.11719 q-1.25 -0.25390625 -2.309570313 -0.9326171875 t-1.8359 -1.6748 t-1.2109 -2.251 t-0.43457 -2.6611 q0 -1.064453125 0.25390625 -2.045898438 t0.71289 -1.8359 t1.1084 -1.5527 t1.4453 -1.1963 t1.7139 -0.77148 t1.9238 -0.27344 t1.9287 0.27344 t1.7188 0.77148 t1.4453 1.1963 t1.1133 1.5527 t0.71777 1.8359 t0.25391 2.0459 q0 1.42578125 -0.44921875 2.6953125 t-1.2451 2.2754 t-1.8896 1.6797 t-2.373 0.89844 q0.302734375 0.126953125 0.6005859375 0.2783203125 t0.60059 0.2832 t0.60059 0.22461 t0.61035 0.10254 q0.302734375 0 0.5908203125 -0.078125 t0.52246 -0.24414 t0.40527 -0.42969 t0.22949 -0.64453 l2.1777 1.084 q-0.087890625 0.712890625 -0.4052734375 1.2890625 t-0.81543 0.98633 t-1.1328 0.63477 t-1.3477 0.22461 q-0.576171875 0 -1.157226563 -0.2197265625 t-1.123 -0.47852 t-1.0205 -0.47852 t-0.83984 -0.21973 q-0.15625 0 -0.2783203125 -0.0048828125 t-0.23926 0 t-0.25879 0.029297 t-0.32715 0.092773 z M19.960903125 17.1973 q0.849609375 0 1.557617188 -0.3662109375 t1.2158 -0.99609 t0.78613 -1.4648 t0.27832 -1.7725 q0 -0.947265625 -0.283203125 -1.787109375 t-0.7959 -1.4697 t-1.2158 -0.99609 t-1.543 -0.36621 t-1.543 0.36621 t-1.2109 0.99609 t-0.7959 1.4697 t-0.28809 1.7871 q0 0.9375 0.2880859375 1.772460938 t0.7959 1.4648 t1.2109 0.99609 t1.543 0.36621 z M28.613284375 5.195 l5.9375 0 l0 2.6855 l-1.3574 0 l0 6.1426 q0 0.83984375 0.1904296875 1.42578125 t0.53223 0.95703 t0.81055 0.54199 t1.0254 0.1709 q0.576171875 0 1.049804688 -0.146484375 t0.81055 -0.50293 t0.51758 -0.95215 t0.18066 -1.4941 l0 -6.1426 l-1.5723 0 l0 -2.6855 l5.9375 0 l0 2.6855 l-1.1816 0 l0 5.7617 q0 1.5625 -0.44921875 2.778320313 t-1.2354 2.0557 t-1.8457 1.2793 t-2.2705 0.43945 q-1.201171875 0 -2.24609375 -0.4345703125 t-1.8213 -1.2598 t-1.2256 -2.0068 t-0.44922 -2.6758 l0 -5.9375 l-1.3379 0 l0 -2.6855 z M52.080075 17.3242 l1.4746 0 l-0.66406 -2.1289 l-4.5508 0 l-0.66406 2.1289 l1.5625 0 l0 2.6758 l-5.6152 0 l0 -2.6758 l1.1035 0 l4.0332 -12.129 l3.916 0 l3.9453 12.129 l1.0742 0 l0 2.6758 l-5.6152 0 l0 -2.6758 z M49.111375 12.6953 l2.9883 0 l-1.5039 -4.8145 z M59.023421875 5.195 l7.832 0 q1.142578125 0 2.041015625 0.341796875 t1.5137 0.91309 t0.94238 1.3281 t0.32715 1.5771 q0 0.751953125 -0.1611328125 1.318359375 t-0.46875 1.0059 t-0.75684 0.77637 t-1.0254 0.61035 q0.498046875 0.25390625 0.87890625 0.7763671875 t0.57617 1.3525 l0.49805 1.9238 l1.2207 0 l0.019531 2.8809 l-4.2969 0 l-0.58594 -3.5156 q-0.087890625 -0.625 -0.2685546875 -1.079101563 t-0.4834 -0.74219 t-0.7373 -0.4248 t-1.0303 -0.13672 l-1.2598 0 l0 3.2227 l1.3574 0 l0 2.6758 l-6.1328 0 l0 -2.6758 l1.5332 0 l0 -9.4434 l-1.5332 0 l0 -2.6855 z M63.798821875 7.881 l0 3.584 l1.9434 0 q0.556640625 0 1.000976563 -0.1025390625 t0.76172 -0.32227 t0.48828 -0.55176 t0.1709 -0.79102 q0 -0.859375 -0.615234375 -1.337890625 t-1.8066 -0.47852 l-1.9434 0 z M73.964828125 5.195 l11.777 0 l0 5.0488 l-3.1836 0 l0 -2.0996 l-3.7988 0 l0 2.9199 l2.9395 0 l0 2.832 l-2.9395 0 l0 3.4277 l3.7988 0 l0 -2.627 l3.1836 0 l0 5.3027 l-11.777 0 l0 -2.6758 l1.5527 0 l0 -9.1797 l-1.5527 0 l0 -2.9492 z"></path></g></svg>
